<?xml version="1.0" ?><svg id="Layer_1" style="enable-background:new 0 0 64 64;" version="1.1" viewBox="0 0 64 64" xml:space="preserve" xmlns="http://www.w3.org/2000/svg" xmlns:xlink="http://www.w3.org/1999/xlink"><style type="text/css">
	.st0{fill:#D3A6FF;}
	.st1{fill:#9146FF;}
	.st2{fill-rule:evenodd;clip-rule:evenodd;fill:#FFFFFF;}
	.st3{fill:#ACBDC5;}
	.st4{fill:#314A52;}
</style><g id="Twitch"><polygon class="st0" points="7,14 7,37 21,37 21,1  "/><polygon class="st1" points="32,0 17.2,0 4,13.2 4,52 16,52 16,64 30,50 38,50 52,36 52,8 26,8 26,24 20,24 8,36 8,14.8 18.8,4    32,4  "/><path class="st2" d="M48,12h-4v12h4V12z M36,12h-4v12h4V12z M57,4H20v29h35l2-1.9V4z"/><path class="st3" d="M32.5,28c13-0.2,23.5-7.3,23.5-16h1v19l-5,5H36l-8,8v-8h-8V24c0,2.2,5.4,4,12,4C32.2,28,32.4,28,32.5,28z"/><polygon class="st4" points="28,52 38.8,52 60,30.8 60,0 28,0 28,4 56,4 56,29.2 37.2,48 32,48  "/></g></svg>